<svg xmlns="http://www.w3.org/2000/svg" xmlns:xlink="http://www.w3.org/1999/xlink" width="100" height="100" viewBox="0 0 100 100"><svg viewBox="0 0 99.999997 99.999997"><g transform="translate(-149.6453,-589.21878)"><path d="m 199.64552,591.21879 a 48.000099,48.000099 0 0 0 -48.00022,48.00022 48.000099,48.000099 0 0 0 48.00022,47.99977 48.000099,48.000099 0 0 0 47.99977,-47.99977 48.000099,48.000099 0 0 0 -47.99977,-48.00022 z m 0,5.42088 a 42.107528,42.578935 0 0 1 42.10718,42.57934 42.107528,42.578935 0 0 1 -42.10718,42.57887 42.107528,42.578935 0 0 1 -42.10763,-42.57887 42.107528,42.578935 0 0 1 42.10763,-42.57934 z" fill="#4286f4" ></path></g>

</svg><g transform="translate(50 50) scale(0.69 -0.69) rotate(0) translate(-50 -50)" style="fill:#4286f4"><svg fill="#4286f4" xmlns="http://www.w3.org/2000/svg" xmlns:xlink="http://www.w3.org/1999/xlink" xml:space="preserve" version="1.1" style="shape-rendering:geometricPrecision;text-rendering:geometricPrecision;image-rendering:optimizeQuality;" viewBox="0 0 193 299" x="0px" y="0px" fill-rule="evenodd" clip-rule="evenodd"><defs><style type="text/css">
   
    .fil0 {fill:#373b44}
   
  </style></defs><g><path class="fil0" d="M17 148c3,20 11,38 33,49 -26,-45 -14,-91 19,-110 -3,6 -7,19 2,25 27,-29 34,-75 28,-112 34,33 53,79 31,120 -15,29 9,57 22,0 60,57 58,157 -34,179 6,-4 55,-50 8,-108 6,41 -28,48 -28,79 -27,-43 36,-44 -12,-108 12,53 -66,74 -11,136 -82,-17 -89,-93 -58,-150z"></path></g></svg></g></svg>